<svg xmlns="http://www.w3.org/2000/svg" xmlns:xlink="http://www.w3.org/1999/xlink" width="1024" zoomAndPan="magnify" viewBox="0 0 768 767.999994" height="1024" preserveAspectRatio="xMidYMid meet" version="1.0"><defs><g/><clipPath id="51db9822e4"><path d="M 0.679688 33.003906 L 109.203125 33.003906 L 109.203125 128 L 0.679688 128 Z M 0.679688 33.003906 " clip-rule="nonzero"/></clipPath><clipPath id="e867d9a37e"><path d="M 124 0.71875 L 609.320312 0.71875 L 609.320312 166.078125 L 124 166.078125 Z M 124 0.71875 " clip-rule="nonzero"/></clipPath><clipPath id="62af379f6e"><rect x="0" width="486" y="0" height="167"/></clipPath><clipPath id="4f734ad617"><rect x="0" width="610" y="0" height="167"/></clipPath></defs><rect x="-76.8" width="921.6" fill="#ffffff" y="-76.799999" height="921.599993" fill-opacity="1"/><rect x="-76.8" width="921.6" fill="#206dd5" y="-76.799999" height="921.599993" fill-opacity="1"/><g transform="matrix(1, 0, 0, 1, 79, 300)"><g clip-path="url(#4f734ad617)"><g clip-path="url(#51db9822e4)"><path fill="#ffffff" d="M 73.066406 69.222656 L 10.910156 69.222656 C 10.910156 69.222656 26.121094 78.023438 36.929688 84.511719 L 36.929688 113.941406 C 36.929688 121.574219 30.742188 127.761719 23.109375 127.761719 L 0.792969 127.761719 L 0.792969 52.871094 C 0.792969 41.945312 9.652344 33.085938 20.578125 33.085938 L 89.417969 33.085938 C 100.34375 33.085938 109.203125 41.945312 109.203125 52.871094 L 109.203125 127.761719 L 86.890625 127.761719 C 79.257812 127.761719 73.070312 121.574219 73.070312 113.941406 L 73.070312 69.222656 Z M 73.066406 69.222656 " fill-opacity="1" fill-rule="nonzero"/></g><g clip-path="url(#e867d9a37e)"><g transform="matrix(1, 0, 0, 1, 124, -0.000000000000056843)"><g clip-path="url(#62af379f6e)"><g fill="#ffffff" fill-opacity="1"><g transform="translate(1.618154, 125.545743)"><g><path d="M 8.25 0 L 8.25 -62.96875 L 22.59375 -62.96875 L 23.875 -52.3125 C 25.8125 -56.03125 28.617188 -58.988281 32.296875 -61.1875 C 35.984375 -63.394531 40.328125 -64.5 45.328125 -64.5 C 53.109375 -64.5 59.15625 -62.039062 63.46875 -57.125 C 67.789062 -52.21875 69.953125 -45.023438 69.953125 -35.546875 L 69.953125 0 L 53.703125 0 L 53.703125 -34.03125 C 53.703125 -39.445312 52.597656 -43.59375 50.390625 -46.46875 C 48.191406 -49.34375 44.769531 -50.78125 40.125 -50.78125 C 35.550781 -50.78125 31.800781 -49.171875 28.875 -45.953125 C 25.957031 -42.742188 24.5 -38.257812 24.5 -32.5 L 24.5 0 Z M 8.25 0 "/></g></g></g><g fill="#ffffff" fill-opacity="1"><g transform="translate(70.162783, 125.545743)"><g><path d="M 29.96875 1.53125 C 24.550781 1.53125 20.101562 0.660156 16.625 -1.078125 C 13.15625 -2.816406 10.570312 -5.125 8.875 -8 C 7.1875 -10.875 6.34375 -14.046875 6.34375 -17.515625 C 6.34375 -23.359375 8.628906 -28.097656 13.203125 -31.734375 C 17.773438 -35.378906 24.628906 -37.203125 33.765625 -37.203125 L 49.765625 -37.203125 L 49.765625 -38.71875 C 49.765625 -43.039062 48.535156 -46.21875 46.078125 -48.25 C 43.628906 -50.28125 40.582031 -51.296875 36.9375 -51.296875 C 33.644531 -51.296875 30.769531 -50.507812 28.3125 -48.9375 C 25.851562 -47.375 24.328125 -45.066406 23.734375 -42.015625 L 7.875 -42.015625 C 8.289062 -46.585938 9.832031 -50.566406 12.5 -53.953125 C 15.164062 -57.335938 18.613281 -59.941406 22.84375 -61.765625 C 27.082031 -63.585938 31.828125 -64.5 37.078125 -64.5 C 46.046875 -64.5 53.109375 -62.253906 58.265625 -57.765625 C 63.429688 -53.273438 66.015625 -46.925781 66.015625 -38.71875 L 66.015625 0 L 52.171875 0 L 50.65625 -10.15625 C 48.789062 -6.769531 46.1875 -3.972656 42.84375 -1.765625 C 39.5 0.429688 35.207031 1.53125 29.96875 1.53125 Z M 33.640625 -11.171875 C 38.296875 -11.171875 41.914062 -12.691406 44.5 -15.734375 C 47.082031 -18.785156 48.710938 -22.554688 49.390625 -27.046875 L 35.546875 -27.046875 C 31.234375 -27.046875 28.144531 -26.257812 26.28125 -24.6875 C 24.414062 -23.125 23.484375 -21.203125 23.484375 -18.921875 C 23.484375 -16.460938 24.414062 -14.554688 26.28125 -13.203125 C 28.144531 -11.847656 30.597656 -11.171875 33.640625 -11.171875 Z M 33.640625 -11.171875 "/></g></g></g><g fill="#ffffff" fill-opacity="1"><g transform="translate(134.772361, 125.545743)"><g><path d="M 8.25 0 L 8.25 -62.96875 L 22.59375 -62.96875 L 23.875 -52.3125 C 25.8125 -56.03125 28.617188 -58.988281 32.296875 -61.1875 C 35.984375 -63.394531 40.328125 -64.5 45.328125 -64.5 C 53.109375 -64.5 59.15625 -62.039062 63.46875 -57.125 C 67.789062 -52.21875 69.953125 -45.023438 69.953125 -35.546875 L 69.953125 0 L 53.703125 0 L 53.703125 -34.03125 C 53.703125 -39.445312 52.597656 -43.59375 50.390625 -46.46875 C 48.191406 -49.34375 44.769531 -50.78125 40.125 -50.78125 C 35.550781 -50.78125 31.800781 -49.171875 28.875 -45.953125 C 25.957031 -42.742188 24.5 -38.257812 24.5 -32.5 L 24.5 0 Z M 8.25 0 "/></g></g></g><g fill="#ffffff" fill-opacity="1"><g transform="translate(203.316989, 125.545743)"><g><path d="M 38.46875 1.53125 C 32.375 1.53125 26.894531 0.132812 22.03125 -2.65625 C 17.164062 -5.457031 13.3125 -9.332031 10.46875 -14.28125 C 7.632812 -19.226562 6.21875 -24.960938 6.21875 -31.484375 C 6.21875 -38.003906 7.65625 -43.738281 10.53125 -48.6875 C 13.414062 -53.632812 17.289062 -57.503906 22.15625 -60.296875 C 27.019531 -63.097656 32.5 -64.5 38.59375 -64.5 C 44.601562 -64.5 50.039062 -63.097656 54.90625 -60.296875 C 59.769531 -57.503906 63.617188 -53.632812 66.453125 -48.6875 C 69.296875 -43.738281 70.71875 -38.003906 70.71875 -31.484375 C 70.71875 -24.960938 69.296875 -19.226562 66.453125 -14.28125 C 63.617188 -9.332031 59.75 -5.457031 54.84375 -2.65625 C 49.9375 0.132812 44.476562 1.53125 38.46875 1.53125 Z M 38.46875 -12.5625 C 42.695312 -12.5625 46.375 -14.148438 49.5 -17.328125 C 52.632812 -20.503906 54.203125 -25.222656 54.203125 -31.484375 C 54.203125 -37.742188 52.632812 -42.460938 49.5 -45.640625 C 46.375 -48.816406 42.738281 -50.40625 38.59375 -50.40625 C 34.28125 -50.40625 30.578125 -48.816406 27.484375 -45.640625 C 24.398438 -42.460938 22.859375 -37.742188 22.859375 -31.484375 C 22.859375 -25.222656 24.398438 -20.503906 27.484375 -17.328125 C 30.578125 -14.148438 34.238281 -12.5625 38.46875 -12.5625 Z M 38.46875 -12.5625 "/></g></g></g><g fill="#ffffff" fill-opacity="1"><g transform="translate(271.607752, 125.545743)"><g><path d="M 45.578125 1.53125 C 40.835938 1.53125 36.6875 0.640625 33.125 -1.140625 C 29.570312 -2.921875 26.695312 -5.421875 24.5 -8.640625 L 22.71875 0 L 8.25 0 L 8.25 -91.40625 L 24.5 -91.40625 L 24.5 -53.953125 C 26.53125 -56.742188 29.21875 -59.195312 32.5625 -61.3125 C 35.90625 -63.4375 40.242188 -64.5 45.578125 -64.5 C 51.503906 -64.5 56.789062 -63.054688 61.4375 -60.171875 C 66.09375 -57.296875 69.773438 -53.359375 72.484375 -48.359375 C 75.191406 -43.367188 76.546875 -37.703125 76.546875 -31.359375 C 76.546875 -25.015625 75.191406 -19.363281 72.484375 -14.40625 C 69.773438 -9.457031 66.09375 -5.5625 61.4375 -2.71875 C 56.789062 0.113281 51.503906 1.53125 45.578125 1.53125 Z M 42.15625 -12.703125 C 47.3125 -12.703125 51.582031 -14.4375 54.96875 -17.90625 C 58.351562 -21.375 60.046875 -25.859375 60.046875 -31.359375 C 60.046875 -36.859375 58.351562 -41.382812 54.96875 -44.9375 C 51.582031 -48.5 47.3125 -50.28125 42.15625 -50.28125 C 36.90625 -50.28125 32.609375 -48.519531 29.265625 -45 C 25.921875 -41.488281 24.25 -36.984375 24.25 -31.484375 C 24.25 -25.984375 25.921875 -21.476562 29.265625 -17.96875 C 32.609375 -14.457031 36.90625 -12.703125 42.15625 -12.703125 Z M 42.15625 -12.703125 "/></g></g></g><g fill="#ffffff" fill-opacity="1"><g transform="translate(345.737587, 125.545743)"><g><path d="M 38.46875 1.53125 C 32.375 1.53125 26.894531 0.132812 22.03125 -2.65625 C 17.164062 -5.457031 13.3125 -9.332031 10.46875 -14.28125 C 7.632812 -19.226562 6.21875 -24.960938 6.21875 -31.484375 C 6.21875 -38.003906 7.65625 -43.738281 10.53125 -48.6875 C 13.414062 -53.632812 17.289062 -57.503906 22.15625 -60.296875 C 27.019531 -63.097656 32.5 -64.5 38.59375 -64.5 C 44.601562 -64.5 50.039062 -63.097656 54.90625 -60.296875 C 59.769531 -57.503906 63.617188 -53.632812 66.453125 -48.6875 C 69.296875 -43.738281 70.71875 -38.003906 70.71875 -31.484375 C 70.71875 -24.960938 69.296875 -19.226562 66.453125 -14.28125 C 63.617188 -9.332031 59.75 -5.457031 54.84375 -2.65625 C 49.9375 0.132812 44.476562 1.53125 38.46875 1.53125 Z M 38.46875 -12.5625 C 42.695312 -12.5625 46.375 -14.148438 49.5 -17.328125 C 52.632812 -20.503906 54.203125 -25.222656 54.203125 -31.484375 C 54.203125 -37.742188 52.632812 -42.460938 49.5 -45.640625 C 46.375 -48.816406 42.738281 -50.40625 38.59375 -50.40625 C 34.28125 -50.40625 30.578125 -48.816406 27.484375 -45.640625 C 24.398438 -42.460938 22.859375 -37.742188 22.859375 -31.484375 C 22.859375 -25.222656 24.398438 -20.503906 27.484375 -17.328125 C 30.578125 -14.148438 34.238281 -12.5625 38.46875 -12.5625 Z M 38.46875 -12.5625 "/></g></g></g><g fill="#ffffff" fill-opacity="1"><g transform="translate(414.028386, 125.545743)"><g><path d="M 2.28125 0 L 25.140625 -31.484375 L 2.28125 -62.96875 L 19.671875 -62.96875 L 35.671875 -40.625 L 51.546875 -62.96875 L 69.0625 -62.96875 L 46.078125 -31.484375 L 69.0625 0 L 51.546875 0 L 35.671875 -22.34375 L 19.671875 0 Z M 2.28125 0 "/></g></g></g></g></g></g></g></g></svg>